<svg xmlns="http://www.w3.org/2000/svg" width="512" height="512" viewBox="0 0 512 512" role="img" aria-label="Carote">
  <defs>
    <linearGradient id="g" x1="0" x2="1" y1="0" y2="1">
      <stop offset="0" stop-color="#E3EED4"/>
      <stop offset="1" stop-color="#CFE1B9"/>
    </linearGradient>
  </defs>
  <rect x="0" y="0" width="512" height="512" rx="128" fill="url(#g)"/>
  
  <path d="M256 410c-60-50-70-150-10-250 60 100 50 200 10 250z" fill="#F08A3C" opacity="0.95"/>
  <path d="M230 168c-40-26-54-52-54-52 30 10 56 18 76 40" fill="none" stroke="#375534" stroke-width="14" stroke-linecap="round"/>
  <path d="M282 168c40-26 54-52 54-52-30 10-56 18-76 40" fill="none" stroke="#375534" stroke-width="14" stroke-linecap="round"/>
  <path d="M256 182c0-44 0-66 0-66" stroke="#0F2A1D" stroke-width="12" stroke-linecap="round" opacity="0.5"/>

</svg>