<svg xmlns="http://www.w3.org/2000/svg" width="512" height="512" viewBox="0 0 512 512" role="img" aria-label="Pomodoro">
  <defs>
    <linearGradient id="g" x1="0" x2="1" y1="0" y2="1">
      <stop offset="0" stop-color="#E3EED4"/>
      <stop offset="1" stop-color="#CFE1B9"/>
    </linearGradient>
  </defs>
  <rect x="0" y="0" width="512" height="512" rx="128" fill="url(#g)"/>
  
  <circle cx="256" cy="290" r="120" fill="#E15B4C" opacity="0.95"/>
  <path d="M256 150c30 0 55 18 70 40-26 6-52 6-78 0 10-18 5-40 8-40z" fill="#0F2A1D"/>
  <path d="M220 175c-32 6-56 26-70 46 28 4 55-4 70-18 10-10 12-20 0-28z" fill="#375534" opacity="0.95"/>
  <path d="M292 175c32 6 56 26 70 46-28 4-55-4-70-18-10-10-12-20 0-28z" fill="#375534" opacity="0.95"/>
  <circle cx="216" cy="260" r="10" fill="#FDFBF0" opacity="0.35"/>

</svg>