<svg xmlns="http://www.w3.org/2000/svg" width="1200" height="800" viewBox="0 0 1200 800">
  <defs>
    <linearGradient id="bg" x1="0" x2="1" y1="0" y2="1">
      <stop offset="0" stop-color="#E7F5DC"/>
      <stop offset="1" stop-color="#FDFBF0"/>
    </linearGradient>
    <linearGradient id="tent" x1="0" x2="1" y1="0" y2="0">
      <stop offset="0" stop-color="#465940"/>
      <stop offset="1" stop-color="#728156"/>
    </linearGradient>
  </defs>
  <rect width="1200" height="800" fill="url(#bg)"/>
  <path d="M0,600 C260,500 450,760 690,610 C930,460 1040,660 1200,560 L1200,800 L0,800 Z" fill="#CFE1B9" opacity="0.9"/>
  <rect x="240" y="360" width="720" height="320" rx="36" fill="#FDFBF0" opacity="0.9"/>
  <path d="M240 420 L420 300 L600 420 L780 300 L960 420 L960 360 L240 360 Z" fill="url(#tent)" opacity="0.95"/>
  <g opacity="0.9">
    <circle cx="420" cy="560" r="60" fill="#98A77C"/>
    <circle cx="560" cy="575" r="55" fill="#B6C99B"/>
    <circle cx="700" cy="560" r="58" fill="#88976C"/>
    <circle cx="840" cy="575" r="52" fill="#728156"/>
  </g>
</svg>