<svg xmlns="http://www.w3.org/2000/svg" width="1200" height="800" viewBox="0 0 1200 800">
  <defs>
    <linearGradient id="bg" x1="0" x2="1" y1="0" y2="1">
      <stop offset="0" stop-color="#FDFBF0"/>
      <stop offset="1" stop-color="#CFE1B9"/>
    </linearGradient>
    <linearGradient id="leaf" x1="0" x2="1" y1="0" y2="1">
      <stop offset="0" stop-color="#98A77C"/>
      <stop offset="1" stop-color="#465940"/>
    </linearGradient>
  </defs>
  <rect width="1200" height="800" fill="url(#bg)"/>
  <path d="M0,620 C280,520 420,760 650,620 C880,480 1020,640 1200,560 L1200,800 L0,800 Z" fill="#B6C99B" opacity="0.9"/>
  <g opacity="0.95">
    <rect x="180" y="320" width="120" height="360" rx="60" fill="#728156"/>
    <circle cx="240" cy="300" r="140" fill="url(#leaf)"/>
    <circle cx="215" cy="270" r="38" fill="#E7F5DC" opacity="0.7"/>
    <rect x="520" y="340" width="120" height="340" rx="60" fill="#728156"/>
    <circle cx="580" cy="310" r="150" fill="url(#leaf)"/>
    <circle cx="610" cy="265" r="42" fill="#E7F5DC" opacity="0.7"/>
    <rect x="860" y="330" width="120" height="350" rx="60" fill="#728156"/>
    <circle cx="920" cy="305" r="145" fill="url(#leaf)"/>
    <circle cx="900" cy="265" r="40" fill="#E7F5DC" opacity="0.7"/>
  </g>
</svg>